<mxfile host="app.diagrams.net" modified="2022-11-02T06:48:56.698Z" agent="5.0 (Macintosh; Intel Mac OS X 10_15_7) AppleWebKit/537.36 (KHTML, like Gecko) Chrome/106.0.0.0 Safari/537.36" etag="8JPBiGkT-Rx_y8YesE9L" version="20.4.2" type="github">
  <diagram id="_K2-TMX8YPO_BOYBvr2d" name="第 1 页">
    <mxGraphModel dx="1773" dy="614" grid="1" gridSize="10" guides="1" tooltips="1" connect="1" arrows="1" fold="1" page="1" pageScale="1" pageWidth="827" pageHeight="1169" math="0" shadow="0">
      <root>
        <mxCell id="0" />
        <mxCell id="1" parent="0" />
        <mxCell id="1uKky-FXHFEg0_YvIJuL-1" value="数据结构&lt;br&gt;" style="ellipse;whiteSpace=wrap;html=1;" vertex="1" parent="1">
          <mxGeometry x="130" y="60" width="120" height="80" as="geometry" />
        </mxCell>
        <mxCell id="1uKky-FXHFEg0_YvIJuL-2" value="1、h5 利用sessionId，当sessionId不同时清除localStorage,当sessionId 相同时被认为是同一打开场景。从缓存中读取数据&lt;br&gt;&lt;br&gt;&lt;br&gt;sessionId-&amp;lt;当前的sessionId&amp;gt;: {a, b, c, d}&lt;br&gt;&lt;br&gt;modalHasShowTimes-&amp;lt;优惠券批次id&amp;gt;: 3&lt;br&gt;hasFetchCoupon: true,优惠券领取接口是否发起" style="whiteSpace=wrap;html=1;aspect=fixed;" vertex="1" parent="1">
          <mxGeometry x="270" y="60" width="350" height="350" as="geometry" />
        </mxCell>
        <mxCell id="1uKky-FXHFEg0_YvIJuL-15" value="" style="edgeStyle=orthogonalEdgeStyle;rounded=0;orthogonalLoop=1;jettySize=auto;html=1;" edge="1" parent="1" source="1uKky-FXHFEg0_YvIJuL-3" target="1uKky-FXHFEg0_YvIJuL-4">
          <mxGeometry relative="1" as="geometry" />
        </mxCell>
        <mxCell id="1uKky-FXHFEg0_YvIJuL-3" value="开始" style="ellipse;whiteSpace=wrap;html=1;" vertex="1" parent="1">
          <mxGeometry x="150" y="430" width="120" height="80" as="geometry" />
        </mxCell>
        <mxCell id="1uKky-FXHFEg0_YvIJuL-16" value="" style="edgeStyle=orthogonalEdgeStyle;rounded=0;orthogonalLoop=1;jettySize=auto;html=1;" edge="1" parent="1" source="1uKky-FXHFEg0_YvIJuL-4" target="1uKky-FXHFEg0_YvIJuL-6">
          <mxGeometry relative="1" as="geometry" />
        </mxCell>
        <mxCell id="1uKky-FXHFEg0_YvIJuL-4" value="页面加载" style="rounded=0;whiteSpace=wrap;html=1;" vertex="1" parent="1">
          <mxGeometry x="150" y="540" width="120" height="60" as="geometry" />
        </mxCell>
        <mxCell id="1uKky-FXHFEg0_YvIJuL-10" value="否" style="edgeStyle=orthogonalEdgeStyle;rounded=0;orthogonalLoop=1;jettySize=auto;html=1;exitX=1;exitY=0.5;exitDx=0;exitDy=0;" edge="1" parent="1" source="1uKky-FXHFEg0_YvIJuL-6" target="1uKky-FXHFEg0_YvIJuL-7">
          <mxGeometry relative="1" as="geometry" />
        </mxCell>
        <mxCell id="1uKky-FXHFEg0_YvIJuL-17" value="是" style="edgeStyle=orthogonalEdgeStyle;rounded=0;orthogonalLoop=1;jettySize=auto;html=1;" edge="1" parent="1" source="1uKky-FXHFEg0_YvIJuL-6" target="1uKky-FXHFEg0_YvIJuL-11">
          <mxGeometry relative="1" as="geometry" />
        </mxCell>
        <mxCell id="1uKky-FXHFEg0_YvIJuL-6" value="根据sessionId 检查缓存，检查领取优惠券接口是否发起" style="rhombus;whiteSpace=wrap;html=1;" vertex="1" parent="1">
          <mxGeometry x="170" y="630" width="80" height="80" as="geometry" />
        </mxCell>
        <mxCell id="1uKky-FXHFEg0_YvIJuL-19" style="edgeStyle=orthogonalEdgeStyle;rounded=0;orthogonalLoop=1;jettySize=auto;html=1;exitX=0.5;exitY=1;exitDx=0;exitDy=0;entryX=1;entryY=0.5;entryDx=0;entryDy=0;" edge="1" parent="1" source="1uKky-FXHFEg0_YvIJuL-7" target="1uKky-FXHFEg0_YvIJuL-11">
          <mxGeometry relative="1" as="geometry" />
        </mxCell>
        <mxCell id="1uKky-FXHFEg0_YvIJuL-7" value="发起请求，记录已发起请求" style="rounded=0;whiteSpace=wrap;html=1;" vertex="1" parent="1">
          <mxGeometry x="320" y="640" width="120" height="60" as="geometry" />
        </mxCell>
        <mxCell id="1uKky-FXHFEg0_YvIJuL-21" value="" style="edgeStyle=orthogonalEdgeStyle;rounded=0;orthogonalLoop=1;jettySize=auto;html=1;" edge="1" parent="1" source="1uKky-FXHFEg0_YvIJuL-11" target="1uKky-FXHFEg0_YvIJuL-20">
          <mxGeometry relative="1" as="geometry" />
        </mxCell>
        <mxCell id="1uKky-FXHFEg0_YvIJuL-23" value="" style="edgeStyle=orthogonalEdgeStyle;rounded=0;orthogonalLoop=1;jettySize=auto;html=1;" edge="1" parent="1" source="1uKky-FXHFEg0_YvIJuL-11" target="1uKky-FXHFEg0_YvIJuL-22">
          <mxGeometry relative="1" as="geometry" />
        </mxCell>
        <mxCell id="1uKky-FXHFEg0_YvIJuL-11" value="根据sessionId检查本次是否已经发起过弹窗" style="rhombus;whiteSpace=wrap;html=1;" vertex="1" parent="1">
          <mxGeometry x="170" y="750" width="80" height="80" as="geometry" />
        </mxCell>
        <mxCell id="1uKky-FXHFEg0_YvIJuL-24" style="edgeStyle=orthogonalEdgeStyle;rounded=0;orthogonalLoop=1;jettySize=auto;html=1;entryX=0.5;entryY=0;entryDx=0;entryDy=0;" edge="1" parent="1" source="1uKky-FXHFEg0_YvIJuL-20" target="1uKky-FXHFEg0_YvIJuL-22">
          <mxGeometry relative="1" as="geometry" />
        </mxCell>
        <mxCell id="1uKky-FXHFEg0_YvIJuL-20" value="显示弹窗，记录已弹窗" style="whiteSpace=wrap;html=1;" vertex="1" parent="1">
          <mxGeometry x="150" y="920" width="120" height="60" as="geometry" />
        </mxCell>
        <mxCell id="1uKky-FXHFEg0_YvIJuL-22" value="结束" style="ellipse;whiteSpace=wrap;html=1;" vertex="1" parent="1">
          <mxGeometry x="-30" y="1020" width="120" height="60" as="geometry" />
        </mxCell>
        <mxCell id="1uKky-FXHFEg0_YvIJuL-25" value="弹窗组件" style="ellipse;whiteSpace=wrap;html=1;" vertex="1" parent="1">
          <mxGeometry x="590" y="620" width="120" height="80" as="geometry" />
        </mxCell>
        <mxCell id="1uKky-FXHFEg0_YvIJuL-28" style="edgeStyle=orthogonalEdgeStyle;rounded=0;orthogonalLoop=1;jettySize=auto;html=1;entryX=0.5;entryY=1;entryDx=0;entryDy=0;" edge="1" parent="1" source="1uKky-FXHFEg0_YvIJuL-26" target="1uKky-FXHFEg0_YvIJuL-25">
          <mxGeometry relative="1" as="geometry" />
        </mxCell>
        <mxCell id="1uKky-FXHFEg0_YvIJuL-29" style="edgeStyle=orthogonalEdgeStyle;rounded=0;orthogonalLoop=1;jettySize=auto;html=1;entryX=0.5;entryY=0;entryDx=0;entryDy=0;" edge="1" parent="1" source="1uKky-FXHFEg0_YvIJuL-26" target="1uKky-FXHFEg0_YvIJuL-27">
          <mxGeometry relative="1" as="geometry" />
        </mxCell>
        <mxCell id="1uKky-FXHFEg0_YvIJuL-26" value="优惠券内容接口组件" style="ellipse;whiteSpace=wrap;html=1;" vertex="1" parent="1">
          <mxGeometry x="590" y="740" width="120" height="80" as="geometry" />
        </mxCell>
        <mxCell id="1uKky-FXHFEg0_YvIJuL-27" value="数据存取工具库" style="ellipse;whiteSpace=wrap;html=1;" vertex="1" parent="1">
          <mxGeometry x="590" y="900" width="120" height="80" as="geometry" />
        </mxCell>
      </root>
    </mxGraphModel>
  </diagram>
</mxfile>
